<svg width="10" height="13" viewBox="0 0 10 13" fill="none" xmlns="http://www.w3.org/2000/svg">
<path d="M5.26562 0.200195C2.78444 0.200195 0.765625 2.13098 0.765625 4.50332C0.765625 5.6331 1.28059 7.13554 2.29619 8.96901C3.11181 10.4411 4.05541 11.7722 4.54619 12.4346C4.62912 12.5477 4.73755 12.6398 4.86269 12.7032C4.98783 12.7667 5.12616 12.7997 5.26647 12.7997C5.40677 12.7997 5.5451 12.7667 5.67025 12.7032C5.79539 12.6398 5.90382 12.5477 5.98675 12.4346C6.47669 11.7722 7.42113 10.4411 8.23675 8.96901C9.25066 7.1361 9.76562 5.63366 9.76562 4.50332C9.76562 2.13098 7.74681 0.200195 5.26562 0.200195ZM5.26562 6.5002C4.90962 6.5002 4.56161 6.39463 4.2656 6.19684C3.96959 5.99905 3.73888 5.71793 3.60264 5.38903C3.4664 5.06012 3.43076 4.6982 3.50021 4.34903C3.56966 3.99987 3.7411 3.67914 3.99283 3.4274C4.24457 3.17567 4.5653 3.00424 4.91446 2.93478C5.26363 2.86533 5.62555 2.90097 5.95445 3.03721C6.28336 3.17345 6.56448 3.40416 6.76227 3.70017C6.96006 3.99618 7.06562 4.34419 7.06562 4.7002C7.0651 5.17742 6.87529 5.63496 6.53784 5.97241C6.20039 6.30986 5.74285 6.49967 5.26562 6.5002Z" fill="#D9AC4F"/>
</svg>
