<svg width="10" height="11" viewBox="0 0 10 11" fill="none" xmlns="http://www.w3.org/2000/svg">
<path fill-rule="evenodd" clip-rule="evenodd" d="M2.45659 2.88069C2.45659 2.56523 2.51873 2.25286 2.63945 1.96142C2.76017 1.66997 2.93711 1.40516 3.16017 1.1821C3.38324 0.959034 3.64805 0.782091 3.9395 0.66137C4.23094 0.54065 4.54331 0.478516 4.85877 0.478516C5.17423 0.478516 5.48659 0.54065 5.77804 0.66137C6.06949 0.782091 6.3343 0.959034 6.55736 1.1821C6.78042 1.40516 6.95737 1.66997 7.07809 1.96142C7.19881 2.25286 7.26094 2.56523 7.26094 2.88069C7.26094 3.51779 7.00786 4.12879 6.55736 4.57928C6.10687 5.02978 5.49586 5.28286 4.85877 5.28286C4.22167 5.28286 3.61067 5.02978 3.16017 4.57928C2.70968 4.12879 2.45659 3.51779 2.45659 2.88069ZM4.85877 1.32634C4.44653 1.32634 4.05117 1.4901 3.75968 1.7816C3.46818 2.0731 3.30442 2.46845 3.30442 2.88069C3.30442 3.29293 3.46818 3.68828 3.75968 3.97978C4.05117 4.27128 4.44653 4.43504 4.85877 4.43504C5.27101 4.43504 5.66636 4.27128 5.95786 3.97978C6.24935 3.68828 6.41312 3.29293 6.41312 2.88069C6.41312 2.46845 6.24935 2.0731 5.95786 1.7816C5.66636 1.4901 5.27101 1.32634 4.85877 1.32634ZM2.5979 6.97852C2.26061 6.97852 1.93714 7.1125 1.69864 7.351C1.46015 7.5895 1.32616 7.91297 1.32616 8.25025V8.92173C1.32616 8.93191 1.33351 8.94095 1.34368 8.94265C3.67181 9.32247 6.04629 9.32247 8.37385 8.94265C8.37865 8.94154 8.38296 8.9389 8.38613 8.93513C8.38929 8.93135 8.39113 8.92665 8.39138 8.92173V8.25025C8.39138 7.91297 8.25739 7.5895 8.01889 7.351C7.7804 7.1125 7.45692 6.97852 7.11964 6.97852H6.92746C6.91234 6.97878 6.89733 6.98106 6.88281 6.9853L6.3939 7.14525C5.39639 7.47097 4.32114 7.47097 3.32364 7.14525L2.83416 6.9853C2.82001 6.98115 2.80538 6.97887 2.79064 6.97852H2.5979ZM0.478333 8.25025C0.478333 7.68811 0.701643 7.14899 1.09914 6.7515C1.49663 6.354 2.03575 6.13069 2.5979 6.13069H2.79007C2.89558 6.13107 2.99807 6.14727 3.09755 6.1793L3.58703 6.33925C4.41339 6.60903 5.30414 6.60903 6.13051 6.33925L6.61999 6.1793C6.7189 6.14708 6.8229 6.13069 6.9269 6.13069H7.11964C7.68178 6.13069 8.2209 6.354 8.6184 6.7515C9.01589 7.14899 9.2392 7.68811 9.2392 8.25025V8.92173C9.2392 9.34791 8.93059 9.71078 8.51007 9.77917C6.09187 10.1739 3.62566 10.1739 1.20746 9.77917C1.00409 9.74571 0.819185 9.64117 0.685666 9.48415C0.552147 9.32714 0.478677 9.12784 0.478333 8.92173V8.25025Z" fill="white"/>
</svg>
