<svg width="82" height="82" viewBox="0 0 82 82" fill="none" xmlns="http://www.w3.org/2000/svg">
<path d="M68.9972 66.9263C68.8634 68.0298 68.515 69.0959 67.9718 70.0637C67.4286 71.0316 66.7013 71.8822 65.8315 72.5671C64.9616 73.2519 63.9663 73.7575 62.9023 74.0549C61.8383 74.3523 60.7265 74.4358 59.6305 74.3006L15.523 68.9089C13.3116 68.6368 11.2979 67.4921 9.92442 65.7263C8.5509 63.9605 7.92986 61.718 8.19774 59.4915L13.6136 15.0764C13.8839 12.8502 15.021 10.823 16.775 9.4403C18.5291 8.05758 20.7566 7.43238 22.9683 7.70205L67.0758 13.0938C68.1719 13.2284 69.2309 13.5792 70.1924 14.126C71.1538 14.6728 71.9988 15.405 72.679 16.2807C73.3593 17.1563 73.8615 18.1584 74.157 19.2295C74.4524 20.3006 74.5354 21.4198 74.401 22.5232L68.9972 66.9263Z" fill="url(#paint0_linear_10_17)"/>
<path style="mix-blend-mode:multiply" opacity="0.5" d="M68.9967 66.9258L74.3526 22.5228C74.4869 21.4194 74.404 20.3001 74.1085 19.229C73.813 18.1579 73.3108 17.1559 72.6306 16.2802C71.9503 15.4045 71.1053 14.6724 70.1439 14.1256C69.1825 13.5787 68.1235 13.228 67.0273 13.0933L62.8484 12.5977L34.1719 71.1812L59.6301 74.3001C60.7261 74.4354 61.8379 74.3519 62.9019 74.0544C63.9659 73.757 64.9612 73.2514 65.8311 72.5666C66.7009 71.8818 67.4282 71.0311 67.9714 70.0633C68.5145 69.0954 68.863 68.0293 68.9967 66.9258Z" fill="url(#paint1_linear_10_17)"/>
<path d="M1.6035 47.1479C0.466601 49.5113 0.297777 52.2298 1.13342 54.7174C1.96906 57.2049 3.74224 59.2623 6.07069 60.4459L8.16018 61.4735V59.648L8.26826 58.8622L7.0674 58.2941C5.28458 57.4051 3.92452 55.8409 3.28526 53.9442C2.64599 52.0476 2.77966 49.9731 3.65696 48.1755L11.3545 32.4598L12.4112 25.1096L1.6035 47.1479Z" fill="white"/>
<path d="M27.6397 0.532545C26.4069 0.951527 25.2684 1.61146 24.2896 2.47447C23.3107 3.33748 22.5108 4.38659 21.9357 5.56159L20.8789 7.67717C21.3628 7.64764 21.848 7.64764 22.3319 7.67717C22.9684 7.67717 23.5328 7.81015 23.5328 7.81015L24.0852 6.66169C24.9666 4.86198 26.52 3.48675 28.4057 2.8366C30.2914 2.18646 32.356 2.31428 34.1484 3.19213L75.4219 23.7435C77.1948 24.6397 78.5464 26.2021 79.1845 28.0931C79.8226 29.9842 79.6961 32.052 78.8323 33.85L58.4177 75.3879C57.9808 76.2773 57.3741 77.0714 56.6324 77.7248C55.8906 78.3782 55.0283 78.8781 54.0946 79.196C52.2313 79.8232 50.1968 79.6797 48.4386 78.797L32.8274 71.0117L25.4782 70.1171L47.3458 80.9972C49.6979 82.1391 52.4017 82.3037 54.8733 81.4555C57.3449 80.6073 59.3858 78.8143 60.5552 76.4638L80.9698 34.9138C82.1106 32.547 82.2775 29.8227 81.4343 27.3327C80.5911 24.8427 78.8059 22.7883 76.4666 21.6158L35.2292 1.0282C34.0599 0.443172 32.7868 0.0980743 31.4839 0.0129823C30.181 -0.0721097 28.8742 0.104503 27.6397 0.532545Z" fill="white"/>
<defs>
<linearGradient id="paint0_linear_10_17" x1="72.39" y1="79.344" x2="14.6309" y2="9.0834" gradientUnits="userSpaceOnUse">
<stop stop-color="#28305F"/>
<stop offset="1" stop-color="#D9AC4F"/>
</linearGradient>
<linearGradient id="paint1_linear_10_17" x1="46.813" y1="49.5426" x2="74.433" y2="43.5112" gradientUnits="userSpaceOnUse">
<stop stop-color="#D9AC4F"/>
<stop offset="1" stop-color="#D9AC4F"/>
</linearGradient>
</defs>
</svg>
