<svg width="13" height="13" viewBox="0 0 13 13" fill="none" xmlns="http://www.w3.org/2000/svg">
<g clipPath="url(#clip0_55_22267)">
<path d="M7.3125 0.40625L0 7.71875L4.46875 12.1875L11.7812 4.875V0.40625H7.3125ZM9.34375 3.65625C9.18305 3.65625 9.02596 3.6086 8.89235 3.51932C8.75873 3.43004 8.65459 3.30315 8.5931 3.15468C8.5316 3.00622 8.51551 2.84285 8.54686 2.68524C8.57821 2.52763 8.6556 2.38286 8.76923 2.26923C8.88286 2.1556 9.02763 2.07821 9.18524 2.04686C9.34285 2.01551 9.50622 2.0316 9.65468 2.0931C9.80315 2.15459 9.93004 2.25873 10.0193 2.39235C10.1086 2.52596 10.1562 2.68305 10.1562 2.84375C10.1562 3.05924 10.0706 3.2659 9.91827 3.41827C9.7659 3.57065 9.55924 3.65625 9.34375 3.65625Z" fill="#D9AC4F"/>
<path d="M12.1881 1.625V5.28125L5.50781 11.9615L6.14512 12.5938L13.0006 5.6875V1.625H12.1881Z" fill="#D9AC4F"/>
</g>
<defs>
<clipPath id="clip0_55_22267">
<rect width="13" height="13" fill="white"/>
</clipPath>
</defs>
</svg>
