<svg width="21" height="20" viewBox="0 0 21 20" fill="none" xmlns="http://www.w3.org/2000/svg">
<path d="M19.5302 19.0091L15.1803 14.664M15.1803 14.664C15.9243 13.9207 16.5146 13.0383 16.9173 12.0672C17.3199 11.0961 17.5272 10.0553 17.5272 9.00417C17.5272 7.95305 17.3199 6.91222 16.9173 5.94111C16.5146 4.97 15.9243 4.08762 15.1803 3.34437C14.4362 2.60111 13.5529 2.01153 12.5807 1.60928C11.6086 1.20703 10.5666 1 9.51433 1C8.46207 1 7.42011 1.20703 6.44794 1.60928C5.47577 2.01153 4.59244 2.60111 3.84838 3.34437C2.34567 4.84544 1.50146 6.88133 1.50146 9.00417C1.50146 11.127 2.34567 13.1629 3.84838 14.664C5.35108 16.165 7.38919 17.0083 9.51433 17.0083C11.6395 17.0083 13.6776 16.165 15.1803 14.664Z" stroke="#D9AC4F" strokeWidth="2" strokeLinecap="round" stroke-linejoin="round"/>
</svg>
