<svg width="22" height="25" viewBox="0 0 22 25" fill="none" xmlns="http://www.w3.org/2000/svg">
<path d="M11.8859 0.560441C13.2166 0.542969 14.5473 0.560441 15.878 0.542969C15.9667 2.098 16.5168 3.68798 17.67 4.78874C18.8055 5.92444 20.4201 6.43113 21.9992 6.60585V10.7118C20.5266 10.6594 19.0539 10.3624 17.7055 9.7334C17.12 9.47131 16.5877 9.13934 16.0554 8.78989C16.0554 11.7602 16.0554 14.7479 16.0377 17.7008C15.9667 19.1335 15.4877 20.5487 14.6538 21.7194C13.3231 23.6763 10.9988 24.9518 8.62129 24.9867C7.1664 25.0741 5.69376 24.6722 4.45178 23.9384C2.39364 22.7328 0.938744 20.4963 0.725833 18.1201C0.690347 17.6134 0.690347 17.1067 0.725833 16.6C0.903259 14.6606 1.8791 12.8085 3.36948 11.5505C5.05503 10.0828 7.43254 9.38395 9.65036 9.80329C9.66811 11.3059 9.61488 12.826 9.61488 14.3286C8.60355 13.9966 7.4148 14.1015 6.52767 14.713C5.87119 15.1323 5.39214 15.7613 5.126 16.4952C4.91309 17.0193 4.96632 17.5785 4.98406 18.1376C5.23245 19.8149 6.84703 21.2127 8.55032 21.0554C9.68585 21.0554 10.7859 20.374 11.3714 19.413C11.5666 19.0811 11.7795 18.7316 11.7972 18.3298C11.9037 16.5126 11.8504 14.6955 11.8682 12.8609C11.8682 8.75495 11.8682 4.64896 11.8859 0.560441Z" fill="url(#paint0_linear_3009_3348)"/>
<defs>
<linearGradient id="paint0_linear_3009_3348" x1="11.3492" y1="0.542969" x2="11.3492" y2="24.9985" gradientUnits="userSpaceOnUse">
<stop stop-color="#28305F"/>
<stop offset="1" stop-color="#5364C5"/>
</linearGradient>
</defs>
</svg>
