<svg width="21" height="19" viewBox="0 0 21 19" fill="none" xmlns="http://www.w3.org/2000/svg">
<path d="M15.4406 4.72216L12.5466 3.05134C9.81817 1.47608 8.45396 0.688447 7.11818 1.04459C6.19847 1.2898 5.53954 2.0113 4.70539 3.32533C4.53997 3.58592 4.45725 3.71622 4.45569 3.83411C4.45412 3.95199 4.58903 4.17813 4.85884 4.63039C5.15849 5.13267 5.185 5.77712 4.87236 6.31862C4.55973 6.86012 3.98837 7.15938 3.40355 7.15102C2.87698 7.14349 2.61368 7.13973 2.51238 7.20002C2.41107 7.26032 2.33958 7.3971 2.19662 7.67066C1.4757 9.05007 1.18033 9.98147 1.42783 10.9006C1.78729 12.2355 3.15151 13.0231 5.87994 14.5983L8.77389 16.2692C11.5023 17.8444 12.8665 18.6321 14.2023 18.2759C15.122 18.0307 15.781 17.3092 16.6151 15.9952C16.7805 15.7346 16.8632 15.6043 16.8648 15.4864C16.8664 15.3685 16.7315 15.1424 16.4617 14.6901C16.162 14.1878 16.1355 13.5434 16.4481 13.0019C16.7608 12.4604 17.3321 12.1611 17.9169 12.1695C18.4435 12.177 18.7068 12.1808 18.8081 12.1205C18.9094 12.0602 18.9809 11.9234 19.1239 11.6499C19.8448 10.2704 20.1402 9.33904 19.8927 8.41994C19.5332 7.08506 18.169 6.29742 15.4406 4.72216Z" stroke="#D9AC4F"/>
</svg>
