<svg width="21" height="22" viewBox="0 0 21 22" fill="none" xmlns="http://www.w3.org/2000/svg">
<path d="M17.8547 3.327C15.8906 1.35727 13.275 0.273926 10.4953 0.273926C4.75781 0.273926 0.0890625 4.94499 0.0890625 10.6853C0.0890625 12.5191 0.567188 14.3106 1.47656 15.891L0 21.2843L5.51719 19.8352C7.03594 20.6653 8.74687 21.1014 10.4906 21.1014H10.4953C16.2281 21.1014 21 16.4304 21 10.69C21 7.90896 19.8188 5.29673 17.8547 3.327ZM10.4953 19.3474C8.93906 19.3474 7.41562 18.93 6.08906 18.1421L5.775 17.9546L2.50313 18.8128L3.375 15.619L3.16875 15.2907C2.30156 13.9119 1.84688 12.3221 1.84688 10.6853C1.84688 5.91578 5.72812 2.03261 10.5 2.03261C12.8109 2.03261 14.9812 2.93305 16.6125 4.5698C18.2437 6.20655 19.2469 8.37794 19.2422 10.69C19.2422 15.4643 15.2625 19.3474 10.4953 19.3474ZM15.2391 12.8661C14.9813 12.7348 13.7016 12.1063 13.4625 12.0219C13.2234 11.9328 13.05 11.8906 12.8766 12.1532C12.7031 12.4159 12.2063 12.9974 12.0516 13.1756C11.9016 13.3491 11.7469 13.3726 11.4891 13.2413C9.96094 12.4768 8.95781 11.8765 7.95 10.146C7.68281 9.6864 8.21719 9.71923 8.71406 8.72499C8.79844 8.55146 8.75625 8.40139 8.69062 8.27007C8.625 8.13876 8.10469 6.85844 7.88906 6.33787C7.67813 5.83137 7.4625 5.90171 7.30313 5.89233C7.15313 5.88295 6.97969 5.88295 6.80625 5.88295C6.63281 5.88295 6.35156 5.94861 6.1125 6.20655C5.87344 6.46918 5.20312 7.09762 5.20312 8.37794C5.20312 9.65826 6.13594 10.8964 6.2625 11.0699C6.39375 11.2434 8.09531 13.8697 10.7062 15C12.3562 15.7128 13.0031 15.7738 13.8281 15.6519C14.3297 15.5768 15.3656 15.0234 15.5812 14.4137C15.7969 13.8041 15.7969 13.2835 15.7313 13.1756C15.6703 13.0584 15.4969 12.9927 15.2391 12.8661Z" fill="#C3A474"/>
</svg>
